<svg xmlns="http://www.w3.org/2000/svg" id="Isolation_Mode" viewBox="0 0 154.53 52.65"><path d="M153.77 11.55v-1.18c-.03-.86-.08-1.71-.24-2.56a8.65 8.65 0 0 0-.79-2.43c-.39-.77-.9-1.47-1.51-2.07a8.34 8.34 0 0 0-2.07-1.51c-.79-.4-1.58-.65-2.44-.8-.84-.15-1.7-.2-2.56-.23-.39 0-.79-.01-1.18-.02H11.54c-.39 0-.78.01-1.18.02C9.51.79 8.65.84 7.8 1c-.86.15-1.65.4-2.43.8-.77.39-1.47.9-2.07 1.51-.61.61-1.12 1.31-1.51 2.07-.4.78-.65 1.58-.8 2.43-.15.85-.21 1.7-.23 2.56-.01.39-.01.78-.02 1.18v29.56c0 .4 0 .78.02 1.18.02.86.07 1.71.23 2.56.15.85.4 1.66.8 2.43.39.76.89 1.46 1.51 2.07.6.61 1.31 1.12 2.07 1.51.78.4 1.57.65 2.43.8.85.15 1.71.2 2.56.23.4 0 .79.01 1.18.01h131.44c.39 0 .79 0 1.18-.01.86-.02 1.71-.08 2.56-.23.86-.15 1.66-.4 2.44-.8.76-.39 1.46-.9 2.07-1.51.61-.6 1.12-1.3 1.51-2.07.39-.78.65-1.58.79-2.43.16-.85.21-1.71.24-2.56V11.55" style="fill:#fff"/><path d="M153.77 11.55v-1.18c-.03-.86-.08-1.71-.24-2.56a8.65 8.65 0 0 0-.79-2.43c-.39-.77-.9-1.47-1.51-2.07a8.34 8.34 0 0 0-2.07-1.51c-.79-.4-1.58-.65-2.44-.8-.84-.15-1.7-.2-2.56-.23-.39 0-.79-.01-1.18-.02H11.54c-.39 0-.78.01-1.18.02C9.51.79 8.65.84 7.8 1c-.86.15-1.65.4-2.43.8-.77.39-1.47.9-2.07 1.51-.61.61-1.12 1.31-1.51 2.07-.4.78-.65 1.58-.8 2.43-.15.85-.21 1.7-.23 2.56-.01.39-.01.78-.02 1.18v29.56c0 .4 0 .78.02 1.18.02.86.07 1.71.23 2.56.15.85.4 1.66.8 2.43.39.76.89 1.46 1.51 2.07.6.61 1.31 1.12 2.07 1.51.78.4 1.57.65 2.43.8.85.15 1.71.2 2.56.23.4 0 .79.01 1.18.01h131.44c.39 0 .79 0 1.18-.01.86-.02 1.71-.08 2.56-.23.86-.15 1.66-.4 2.44-.8.76-.39 1.46-.9 2.07-1.51.61-.6 1.12-1.3 1.51-2.07.39-.78.65-1.58.79-2.43.16-.85.21-1.71.24-2.56V11.55" style="fill:none;stroke:#000;stroke-miterlimit:10;stroke-width:1.5px"/><path d="M32.72 26.18c-.03-3.66 2.99-5.44 3.13-5.52-1.71-2.5-4.37-2.84-5.31-2.87-2.23-.24-4.4 1.34-5.54 1.34s-2.91-1.31-4.8-1.28c-2.43.04-4.7 1.45-5.95 3.63-2.57 4.45-.65 11 1.81 14.6 1.23 1.76 2.67 3.73 4.56 3.66 1.85-.07 2.53-1.17 4.76-1.17s2.85 1.17 4.78 1.13c1.98-.03 3.22-1.77 4.41-3.55 1.42-2.02 2-4.01 2.02-4.11-.05-.02-3.84-1.47-3.88-5.85M29.08 15.43c.99-1.24 1.67-2.93 1.48-4.64-1.43.07-3.23.99-4.27 2.21-.92 1.07-1.73 2.82-1.52 4.47 1.61.12 3.27-.81 4.3-2.04M54.85 35.46H48.8l-1.45 4.29h-2.57l5.74-15.88h2.66l5.73 15.88H56.3l-1.45-4.29Zm-5.43-1.98h4.8l-2.36-6.96h-.07l-2.37 6.96ZM71.29 33.96c0 3.6-1.93 5.91-4.83 5.91-1.65 0-2.96-.74-3.64-2.03h-.05v5.73h-2.38V28.16h2.3v1.93h.04c.66-1.24 2.07-2.05 3.68-2.05 2.94 0 4.88 2.32 4.88 5.91m-2.44 0c0-2.34-1.21-3.89-3.06-3.89s-3.04 1.58-3.04 3.89 1.22 3.89 3.04 3.89 3.06-1.53 3.06-3.89M84.03 33.96c0 3.6-1.93 5.91-4.83 5.91-1.65 0-2.96-.74-3.64-2.03h-.05v5.73h-2.38V28.16h2.3v1.93h.04c.66-1.24 2.07-2.05 3.68-2.05 2.94 0 4.88 2.32 4.88 5.91m-2.44 0c0-2.34-1.21-3.89-3.06-3.89s-3.04 1.58-3.04 3.89 1.22 3.89 3.04 3.89 3.06-1.53 3.06-3.89M92.45 35.32c.18 1.58 1.7 2.61 3.8 2.61s3.44-1.03 3.44-2.45c0-1.23-.87-1.97-2.93-2.47l-2.06-.5c-2.92-.71-4.27-2.07-4.27-4.28 0-2.74 2.39-4.62 5.78-4.62s5.66 1.88 5.73 4.62h-2.4c-.15-1.58-1.45-2.54-3.37-2.54s-3.22.97-3.22 2.38c0 1.12.83 1.78 2.88 2.29l1.75.43c3.26.77 4.61 2.08 4.61 4.4 0 2.97-2.37 4.83-6.13 4.83-3.52 0-5.9-1.82-6.05-4.69h2.43ZM107.33 25.43v2.74h2.2v1.88h-2.2v6.38c0 .99.44 1.46 1.41 1.46.24 0 .63-.04.78-.06v1.87c-.26.07-.79.11-1.32.11-2.35 0-3.26-.88-3.26-3.12v-6.64h-1.68v-1.88h1.68v-2.74h2.39ZM110.81 33.96c0-3.64 2.15-5.93 5.49-5.93s5.49 2.29 5.49 5.93-2.12 5.93-5.49 5.93-5.49-2.28-5.49-5.93m8.56 0c0-2.5-1.15-3.97-3.07-3.97s-3.07 1.48-3.07 3.97 1.15 3.97 3.07 3.97 3.07-1.46 3.07-3.97M123.75 28.17h2.27v1.97h.05c.36-1.31 1.42-2.09 2.79-2.09.34 0 .63.04.81.09v2.23c-.19-.08-.6-.14-1.07-.14-1.53 0-2.48 1.03-2.48 2.66v6.87h-2.38V28.18ZM140.63 36.35c-.32 2.1-2.37 3.54-4.98 3.54-3.37 0-5.46-2.26-5.46-5.88s2.1-5.99 5.36-5.99 5.22 2.2 5.22 5.71v.81h-8.18v.14c0 1.98 1.24 3.28 3.11 3.28 1.32 0 2.35-.62 2.67-1.63h2.26Zm-8.03-3.46h5.79c-.06-1.77-1.19-2.94-2.84-2.94s-2.82 1.19-2.95 2.94M49.12 11.91c2.26 0 3.59 1.39 3.59 3.79s-1.32 3.84-3.59 3.84h-2.76v-7.63h2.76Zm-1.57 6.55h1.44c1.6 0 2.52-.99 2.52-2.74s-.94-2.73-2.52-2.73h-1.44v5.47ZM54.05 16.66c0-1.86 1.04-2.99 2.72-2.99s2.71 1.13 2.71 2.99-1.03 2.99-2.71 2.99-2.72-1.13-2.72-2.99m4.26 0c0-1.25-.56-1.98-1.55-1.98s-1.54.73-1.54 1.98.55 1.98 1.54 1.98 1.55-.73 1.55-1.98M66.7 19.55h-1.18l-1.19-4.25h-.09l-1.18 4.25h-1.17l-1.59-5.76h1.16l1.03 4.39h.08l1.19-4.39h1.09l1.18 4.39h.09l1.03-4.39h1.13l-1.58 5.76zM69.62 13.79h1.09v.92h.09c.28-.64.85-1.03 1.72-1.03 1.29 0 1.99.77 1.99 2.14v3.73h-1.14V16.1c0-.92-.4-1.38-1.24-1.38s-1.37.56-1.37 1.46v3.37h-1.14v-5.76ZM76.32 11.54h1.14v8.01h-1.14zM79.04 16.66c0-1.86 1.04-2.99 2.72-2.99s2.72 1.13 2.72 2.99-1.03 2.99-2.72 2.99-2.72-1.13-2.72-2.99m4.26 0c0-1.25-.56-1.98-1.55-1.98s-1.54.73-1.54 1.98.55 1.98 1.54 1.98 1.55-.73 1.55-1.98M85.67 17.92c0-1.04.77-1.64 2.14-1.72l1.56-.09v-.5c0-.61-.4-.95-1.18-.95-.63 0-1.07.24-1.2.64h-1.1c.12-.99 1.05-1.62 2.35-1.62 1.44 0 2.26.72 2.26 1.93v3.93h-1.1v-.81h-.09c-.34.58-.97.9-1.73.9-1.11 0-1.92-.67-1.92-1.72m3.7-.49v-.48l-1.41.09c-.79.05-1.15.32-1.15.83s.45.82 1.07.82c.86 0 1.49-.55 1.49-1.26M91.99 16.66c0-1.82.94-2.97 2.39-2.97.79 0 1.45.37 1.76 1.01h.09v-3.16h1.14v8.01h-1.09v-.91h-.09c-.34.63-1.02 1-1.81 1-1.47 0-2.39-1.15-2.39-2.98m1.18 0c0 1.22.57 1.96 1.54 1.96s1.55-.74 1.55-1.95-.6-1.96-1.55-1.96-1.54.74-1.54 1.95M102.07 16.66c0-1.86 1.04-2.99 2.72-2.99s2.71 1.13 2.71 2.99-1.03 2.99-2.71 2.99-2.72-1.13-2.72-2.99m4.26 0c0-1.25-.56-1.98-1.54-1.98s-1.54.73-1.54 1.98.55 1.98 1.54 1.98 1.54-.73 1.54-1.98M109.03 13.79h1.09v.92h.09c.28-.64.85-1.03 1.72-1.03 1.29 0 1.99.77 1.99 2.14v3.73h-1.14V16.1c0-.92-.4-1.38-1.24-1.38s-1.37.56-1.37 1.46v3.37h-1.14v-5.76ZM120.34 12.35v1.46h1.25v.96h-1.25v2.96c0 .6.25.87.81.87.17 0 .27 0 .43-.03v.95c-.18.03-.4.06-.62.06-1.26 0-1.77-.44-1.77-1.55v-3.25h-.91v-.96h.91v-1.46h1.14ZM123.14 11.54h1.13v3.17h.09c.28-.65.89-1.03 1.75-1.03 1.22 0 1.98.78 1.98 2.15v3.72h-1.14v-3.44c0-.92-.43-1.39-1.23-1.39-.93 0-1.45.59-1.45 1.46v3.36h-1.14v-8ZM134.72 17.99c-.26 1.03-1.18 1.67-2.49 1.67-1.65 0-2.66-1.13-2.66-2.97s1.03-3.01 2.66-3.01 2.57 1.09 2.57 2.9v.4h-4.07v.06c.04 1.01.62 1.65 1.53 1.65.69 0 1.16-.25 1.37-.7h1.09Zm-4-1.85h2.91c-.03-.9-.57-1.49-1.42-1.49s-1.43.59-1.49 1.49"/></svg>