<svg xmlns="http://www.w3.org/2000/svg" id="Isolation_Mode" viewBox="0 0 18.81 18.81"><path d="M14.38 3.36c-.61 0-1.1.49-1.1 1.1s.49 1.1 1.1 1.1 1.1-.49 1.1-1.1-.49-1.1-1.1-1.1M9.48 4.77c-2.55 0-4.63 2.08-4.63 4.63s2.08 4.63 4.63 4.63 4.63-2.08 4.63-4.63-2.08-4.63-4.63-4.63m0 7.6a2.97 2.97 0 1 1 0-5.94 2.97 2.97 0 0 1 0 5.94"/><path d="M13.16 18.81H5.65A5.65 5.65 0 0 1 0 13.16V5.65A5.65 5.65 0 0 1 5.65 0h7.51c3.11 0 5.65 2.53 5.65 5.65v7.51c0 3.12-2.54 5.65-5.65 5.65M5.65 1.77c-2.14 0-3.88 1.74-3.88 3.88v7.51c0 2.14 1.74 3.88 3.88 3.88h7.51c2.14 0 3.88-1.74 3.88-3.88V5.65c0-2.14-1.74-3.88-3.88-3.88H5.65Z"/></svg>