<svg xmlns="http://www.w3.org/2000/svg" xml:space="preserve" id="Layer_1" x="0" y="0" style="enable-background:new 0 0 571.5 101.7" version="1.1" viewBox="0 0 571.5 101.7"><path d="M200.2 1.3v63.4h-13.6l.3-42.7-19.3 27.6h-3.8l-19.1-26.9.4 42h-13.6V1.3h13.9L165.7 32l20.2-30.7zM214.6 1.3h13.6v63.4h-13.6zM287.3 64.7l-19.1-23.2h-11.8v23.2h-13.6V1.3h31.5c12.9 0 21.8 7.9 21.8 20 0 8.4-5.3 15.3-13.6 18.4l21.2 25h-16.4zm-31-34.5h15.9c5.8 0 9.7-3.3 9.7-8.6 0-5.6-3.9-8.8-9.7-8.8h-15.9v17.4zM355 64.7l-19.1-23.2h-11.8v23.2h-13.6V1.3h31.4c12.9 0 21.8 7.9 21.8 20 0 8.4-5.3 15.3-13.6 18.4l21.2 25H355zm-30.9-34.5H340c5.8 0 9.7-3.3 9.7-8.6 0-5.6-3.9-8.8-9.7-8.8h-15.9v17.4zM373.5 33c0-19.1 14.2-33 33.8-33S441 13.9 441 33s-14.2 33-33.7 33-33.8-13.9-33.8-33m53.6 0c0-12.1-8.3-20.9-19.7-20.9s-19.9 8.8-19.9 20.9 8.3 20.9 19.8 20.9 19.8-8.8 19.8-20.9M497 64.7l-19.1-23.2h-11.8v23.2h-13.6V1.3H484c13 0 21.8 7.9 21.8 20 0 8.4-5.3 15.3-13.6 18.4l21.2 25H497zm-31-34.5h15.9c5.8 0 9.7-3.3 9.7-8.6 0-5.6-3.9-8.8-9.7-8.8H466v17.4zM517.3 59.5l3.8-11.8c6.4 3.8 14.6 6.3 22.2 6.3 6.4 0 11.3-2.1 11.3-7.3 0-4.3-4.8-5.7-16.5-8.4-9.3-2.2-20.2-6-20.2-19.1S528.7 0 543.3 0c7.4 0 15.7 2.1 22.2 5.4l-4.3 11.2c-5.6-3-13-4.9-18.8-4.9-6.8 0-10.5 2.4-10.5 6.2 0 4.3 4.9 5.8 14 7.9 10.4 2.4 22.8 6 22.8 19.5 0 12.9-11.3 20.6-26.4 20.6-8.9.1-17.5-2.5-25-6.4M131.5 81.1h8.4c2.3 0 4.1.7 5.3 1.8.8.8 1.3 1.9 1.3 3.2v.1c0 2.8-1.8 4.1-3.4 4.8 2.4.6 4.6 2 4.6 4.8v.1c0 3.4-2.9 5.5-7.3 5.5h-8.9V81.1zm8.2 9.3c3 0 5.2-1.5 5.2-4.2v-.1c0-2.2-1.8-3.7-5.1-3.7H133v8h6.7zm.7 9.5c3.5 0 5.7-1.6 5.7-4.1v-.1c0-2.5-2.2-3.9-6.2-3.9H133v8.1h7.4zM167.7 81.1h14.5v1.4h-13v7.9h11.6v1.4h-11.6v8.1h13.1v1.4h-14.6zM210.2 80.9h1.4l9.4 20.4h-1.7l-2.6-5.7h-12l-2.6 5.7h-1.6l9.7-20.4zm6 13.4-5.3-11.7-5.4 11.7h10.7zM239.6 92.9V81.1h1.5v11.7c0 4.8 2.6 7.5 6.9 7.5s6.8-2.5 6.8-7.4V81.1h1.5v11.7c0 5.8-3.4 8.9-8.3 8.9s-8.4-3.1-8.4-8.8M282.9 82.5h-7.1v-1.4h15.6v1.4h-7v18.8h-1.5zM317.9 93.3l-8.7-12.2h1.9l7.6 10.9 7.6-10.9h1.8l-8.7 12.2v8h-1.5zM371.4 81.1h1.5v18.8h11.9v1.4h-13.4zM402.5 91.3c0-5.6 4.1-10.5 10.2-10.5s10.2 4.9 10.2 10.4v.1c0 5.5-4.1 10.5-10.2 10.5s-10.2-5-10.2-10.5m18.9 0c0-5.1-3.6-9.2-8.7-9.2s-8.6 4.1-8.6 9.1v.1c0 5 3.6 9.1 8.7 9.1s8.6-4.1 8.6-9.1M443.1 92.9V81.1h1.5v11.7c0 4.8 2.6 7.5 6.9 7.5s6.8-2.5 6.8-7.4V81.1h1.5v11.7c0 5.8-3.4 8.9-8.3 8.9s-8.4-3.1-8.4-8.8M480.7 81.1h1.4l14 17.6V81.1h1.5v20.2h-1.2l-14.2-18v18h-1.5zM518 91.3c0-5.5 4-10.5 10-10.5 3.3 0 5.4 1 7.4 2.7l-1 1.1c-1.6-1.4-3.5-2.4-6.5-2.4-4.9 0-8.4 4.2-8.4 9.1v.1c0 5.2 3.3 9.2 8.7 9.2 2.6 0 5-1.1 6.5-2.3v-5.8h-6.8v-1.4h8.2v7.8c-1.8 1.6-4.7 3-8 3-6.3-.2-10.1-4.9-10.1-10.6M556.9 81.1h14.5v1.4h-13v7.9H570v1.4h-11.6v8.1h13.1v1.4h-14.6zM85.5 101.6H15.6C7 101.6 0 94.7 0 86V15.7C0 7 7 .1 15.6.1h69.9c8.6 0 15.6 7 15.6 15.6V86c.1 8.7-6.9 15.6-15.6 15.6z"/><path d="M23 25.5h19.2L49 54.9c.3 1.1.5 2.5.7 4.1.2 1.6.3 3.2.3 4.9h1.1c0-1.6.1-3.3.3-4.9.2-1.6.5-3 .7-4.1l6.7-29.5H78v50.8H66.2V44.3c0-1.7 0-3.1.1-4.1.1-1.1.2-2.6.4-4.5l-1.1-.1c-.5 3.5-1.1 6.4-1.7 8.7l-7.7 31.9H44.8l-7.7-31.9c-.6-2.3-1.1-5.2-1.7-8.7l-1.1.1c.2 1.9.4 3.4.4 4.5.1 1.1.1 2.4.1 4.1v31.9H23V25.5z" style="fill:#fff"/></svg>