<svg xmlns="http://www.w3.org/2000/svg" viewBox="0 0 440 101.69"><path d="M68.65 1.3v63.44H55.09l.35-42.76-19.38 27.64h-3.74L13.21 22.68l.35 42.06H0V1.3h13.9l20.34 30.68L54.4 1.3h14.25zM83.11 1.3h13.64v63.43H83.11zM155.77 64.74l-19.11-23.2h-11.82v23.2H111.2V1.3h31.46c12.94 0 21.81 7.91 21.81 19.99 0 8.43-5.3 15.29-13.56 18.42l21.2 25.03h-16.34Zm-30.93-34.58h15.9c5.82 0 9.73-3.3 9.73-8.6 0-5.65-3.91-8.77-9.73-8.77h-15.9v17.36ZM223.5 64.74l-19.11-23.2h-11.82v23.2h-13.64V1.3h31.45c12.95 0 21.81 7.91 21.81 19.99 0 8.43-5.3 15.29-13.56 18.42l21.2 25.03h-16.34Zm-30.93-34.58h15.9c5.82 0 9.73-3.3 9.73-8.6 0-5.65-3.91-8.77-9.73-8.77h-15.9v17.36ZM242.04 33.02C242.04 13.9 256.2 0 275.84 0s33.72 13.9 33.72 33.02-14.16 33.02-33.72 33.02-33.8-13.9-33.8-33.02m53.53 0c0-12.08-8.34-20.85-19.73-20.85s-19.81 8.77-19.81 20.85 8.34 20.85 19.81 20.85 19.73-8.78 19.73-20.85M365.47 64.74l-19.11-23.2h-11.82v23.2H320.9V1.3h31.45c12.95 0 21.81 7.91 21.81 19.99 0 8.43-5.3 15.29-13.56 18.42l21.2 25.03h-16.34Zm-30.93-34.58h15.9c5.82 0 9.73-3.3 9.73-8.6 0-5.65-3.91-8.77-9.73-8.77h-15.9v17.36ZM385.84 59.52l3.82-11.82c6.43 3.82 14.6 6.34 22.16 6.34 6.43 0 11.3-2.09 11.3-7.3 0-4.35-4.78-5.74-16.51-8.43-9.3-2.17-20.25-6-20.25-19.12S397.23 0 411.82 0c7.38 0 15.72 2.08 22.16 5.39l-4.26 11.21c-5.65-3.04-13.03-4.86-18.77-4.86-6.77 0-10.51 2.35-10.51 6.25 0 4.26 4.87 5.82 13.99 7.91 10.43 2.43 22.77 5.99 22.77 19.55 0 12.86-11.3 20.59-26.42 20.59-8.86 0-17.46-2.6-24.94-6.52M0 81.07h8.37c2.29 0 4.14.67 5.27 1.79.84.84 1.3 1.91 1.3 3.19v.05c0 2.75-1.79 4.14-3.45 4.81 2.43.64 4.58 2.03 4.58 4.84v.06c0 3.39-2.9 5.53-7.27 5.53H0V81.06Zm8.2 9.35c3.04 0 5.21-1.48 5.21-4.17v-.06c0-2.23-1.83-3.73-5.07-3.73H1.5v7.96h6.69Zm.67 9.53c3.47 0 5.68-1.59 5.68-4.14v-.06c0-2.49-2.17-3.94-6.17-3.94H1.5v8.14h7.36ZM36.23 81.07h14.42v1.39H37.73v7.96h11.61v1.39H37.73v8.14h13.06v1.39H36.23V81.07zM78.65 80.92h1.45l9.44 20.42h-1.65l-2.58-5.68H73.35l-2.58 5.68h-1.56l9.44-20.42Zm6.03 13.38-5.33-11.73-5.36 11.73h10.69ZM108.09 92.91V81.07h1.51v11.7c0 4.78 2.58 7.53 6.87 7.53s6.75-2.49 6.75-7.39V81.07h1.51v11.67c0 5.82-3.39 8.92-8.31 8.92s-8.31-3.07-8.31-8.75M151.36 82.46h-7.07v-1.39h15.64v1.39h-7.06v18.88h-1.51V82.46zM186.42 93.32l-8.68-12.25h1.88l7.59 10.89 7.62-10.89h1.79l-8.69 12.22v8.05h-1.51v-8.02zM239.87 81.07h1.5v18.88h11.91v1.39h-13.41V81.07zM271.05 91.26v-.06c0-5.53 4.08-10.49 10.22-10.49s10.17 4.9 10.17 10.43v.06c0 5.53-4.09 10.49-10.23 10.49s-10.16-4.89-10.16-10.43m18.83 0v-.06c0-5.01-3.65-9.12-8.66-9.12s-8.6 4.06-8.6 9.07v.06c0 5.01 3.65 9.12 8.66 9.12s8.6-4.05 8.6-9.06M311.57 92.91V81.07h1.51v11.7c0 4.78 2.58 7.53 6.87 7.53s6.75-2.49 6.75-7.39V81.07h1.51v11.67c0 5.82-3.39 8.92-8.31 8.92s-8.31-3.07-8.31-8.75M349.21 81.07h1.42l13.99 17.64V81.07h1.45v20.27h-1.13l-14.28-18.02v18.02h-1.45V81.07zM386.51 91.26v-.06c0-5.47 3.97-10.49 10.02-10.49 3.3 0 5.38.99 7.41 2.67l-.99 1.13c-1.59-1.39-3.45-2.43-6.52-2.43-4.93 0-8.37 4.17-8.37 9.07v.06c0 5.24 3.27 9.16 8.69 9.16 2.58 0 4.98-1.07 6.46-2.32v-5.82h-6.78v-1.39h8.22v7.82c-1.83 1.62-4.66 3.04-7.96 3.04-6.4 0-10.2-4.72-10.2-10.43M425.43 81.07h14.42v1.39h-12.91v7.96h11.61v1.39h-11.61v8.14H440v1.39h-14.57V81.07z" style="fill:#fff"/></svg>