<svg xmlns="http://www.w3.org/2000/svg" id="Isolation_Mode" viewBox="0 0 178.61 52.49"><defs><style>.cls-1{fill:none;stroke:#000;stroke-miterlimit:10;stroke-width:1.5px}.cls-2{fill:#00d7fe}.cls-3{fill:#fff}.cls-4{fill:#f83345}.cls-5{fill:#00ef77}.cls-6{fill:#fed400}</style></defs><path d="M6.33.75h165.96c3.08 0 5.58 2.5 5.58 5.58v39.83c0 3.08-2.5 5.58-5.58 5.58H6.33c-3.08 0-5.58-2.5-5.58-5.58V6.33C.75 3.25 3.25.75 6.33.75Z" class="cls-3"/><path d="M172.29.75c3.07 0 5.58 2.5 5.58 5.58v39.83c0 3.07-2.5 5.58-5.58 5.58H6.33c-3.07 0-5.58-2.5-5.58-5.58V6.33C.75 3.25 3.25.75 6.33.75h165.96" class="cls-1"/><path d="M62.64 13.29c0 1.11-.33 2-.99 2.66-.75.79-1.72 1.18-2.93 1.18s-2.13-.4-2.93-1.2c-.8-.8-1.21-1.79-1.21-2.97s.4-2.17 1.21-2.96c.81-.8 1.78-1.2 2.93-1.2.57 0 1.12.11 1.63.33.52.22.94.52 1.25.89l-.7.7c-.53-.63-1.25-.94-2.18-.94-.84 0-1.57.29-2.18.88-.61.59-.92 1.36-.92 2.3s.3 1.71.92 2.3c.61.59 1.34.88 2.18.88.89 0 1.63-.3 2.22-.89.39-.39.61-.93.67-1.61h-2.89v-.96h3.86c.04.21.06.41.06.6M68.76 9.96h-3.62v2.53h3.27v.95h-3.27v2.53h3.62v.98h-4.65V8.98h4.65v.98zM73.08 16.95h-1.03V9.96h-2.22v-.98h5.48v.98h-2.23v6.99zM79.27 8.98h1.02v7.97h-1.02zM84.83 16.95H83.8V9.96h-2.22v-.98h5.47v.98h-2.22v6.99zM97.42 15.92c-.79.81-1.76 1.21-2.92 1.21s-2.14-.4-2.92-1.21c-.78-.81-1.17-1.79-1.17-2.96s.39-2.15 1.17-2.95c.78-.8 1.76-1.21 2.92-1.21s2.13.4 2.91 1.21c.79.81 1.18 1.79 1.18 2.95s-.39 2.15-1.17 2.96m-5.09-.67c.59.6 1.31.9 2.16.9s1.57-.3 2.16-.9c.59-.6.89-1.36.89-2.29s-.3-1.69-.89-2.28c-.59-.6-1.31-.9-2.16-.9s-1.57.3-2.16.9c-.59.6-.88 1.36-.88 2.28s.3 1.69.88 2.29M100.03 16.95V8.98h1.24l3.87 6.2h.05l-.05-1.54V8.98h1.03v7.97h-1.07l-4.05-6.5h-.04l.04 1.54v4.96h-1.02zM90.15 28.57c-3.12 0-5.67 2.37-5.67 5.65s2.55 5.65 5.67 5.65 5.67-2.4 5.67-5.65-2.54-5.65-5.67-5.65m0 9.07c-1.71 0-3.19-1.41-3.19-3.42s1.48-3.42 3.19-3.42 3.19 1.39 3.19 3.42-1.48 3.42-3.19 3.42m-12.37-9.07c-3.12 0-5.67 2.37-5.67 5.65s2.55 5.65 5.67 5.65 5.67-2.4 5.67-5.65-2.54-5.65-5.67-5.65m0 9.07c-1.71 0-3.19-1.41-3.19-3.42s1.48-3.42 3.19-3.42 3.19 1.39 3.19 3.42-1.48 3.42-3.19 3.42M63.07 30.3v2.4h5.73c-.17 1.35-.62 2.33-1.3 3.02-.83.84-2.14 1.75-4.43 1.75-3.53 0-6.29-2.84-6.29-6.38s2.76-6.37 6.29-6.37c1.9 0 3.29.75 4.32 1.71l1.69-1.69c-1.43-1.37-3.33-2.42-6.01-2.42-4.84 0-8.9 3.93-8.9 8.77s4.06 8.77 8.9 8.77c2.61 0 4.58-.86 6.12-2.46 1.58-1.58 2.07-3.8 2.07-5.6 0-.55-.04-1.07-.13-1.5h-8.06Zm60.15 1.86c-.47-1.26-1.9-3.59-4.83-3.59s-5.33 2.29-5.33 5.65c0 3.17 2.4 5.65 5.61 5.65 2.59 0 4.08-1.58 4.7-2.5l-1.93-1.28c-.64.94-1.52 1.56-2.78 1.56s-2.16-.58-2.74-1.71l7.55-3.12-.26-.64Zm-7.7 1.88c-.06-2.18 1.69-3.29 2.95-3.29.98 0 1.82.49 2.1 1.2l-5.05 2.09Zm-6.14 5.48h2.48v-16.6h-2.48v16.6Zm-4.07-9.69h-.08c-.56-.66-1.63-1.26-2.97-1.26-2.82 0-5.41 2.48-5.41 5.67s2.59 5.63 5.41 5.63c1.35 0 2.42-.6 2.97-1.28h.08v.81c0 2.16-1.16 3.31-3.02 3.31-1.52 0-2.46-1.09-2.84-2.01l-2.16.9c.62 1.5 2.27 3.34 5.01 3.34 2.91 0 5.37-1.71 5.37-5.88V28.92h-2.35v.92Zm-2.84 7.81c-1.71 0-3.15-1.43-3.15-3.4s1.43-3.44 3.15-3.44 3.02 1.46 3.02 3.44-1.33 3.4-3.02 3.4m32.37-14.71h-5.94v16.6h2.48v-6.29h3.46c2.74 0 5.45-1.99 5.45-5.15s-2.7-5.15-5.45-5.15m.06 8h-3.52v-5.69h3.52c1.85 0 2.91 1.53 2.91 2.84s-1.05 2.85-2.91 2.85m15.31-2.39c-1.8 0-3.65.79-4.42 2.54l2.2.92c.47-.92 1.34-1.22 2.26-1.22 1.28 0 2.58.77 2.6 2.14v.17c-.45-.26-1.41-.64-2.59-.64-2.37 0-4.78 1.3-4.78 3.74 0 2.22 1.94 3.65 4.12 3.65 1.67 0 2.58-.75 3.16-1.62h.09v1.28h2.39v-6.36c0-2.95-2.2-4.59-5.04-4.59m-.3 9.1c-.81 0-1.94-.4-1.94-1.41 0-1.28 1.41-1.77 2.63-1.77 1.09 0 1.6.24 2.26.55a3.006 3.006 0 0 1-2.95 2.63m14.05-8.73-2.84 7.2h-.09l-2.94-7.2h-2.67l4.42 10.05-2.52 5.6h2.58l6.81-15.65h-2.76Zm-22.31 10.62h2.48V22.92h-2.48v16.6Z"/><path d="m42.57 27.96-6.67 3.85-5.64-5.57 5.58-5.59 6.73 3.89c1.32.76 1.32 2.66 0 3.43" class="cls-6"/><path d="M35.91 31.8 15.9 43.35c-.84.48-1.81.28-2.4-.33l16.76-16.79 5.64 5.57Z" class="cls-4"/><path d="m30.26 26.23-16.77 16.8a1.98 1.98 0 0 1-.57-1.39v-30.8c0-.5.18-.94.47-1.28l16.87 16.67Z" class="cls-2"/><path d="m35.84 20.64-5.58 5.59L13.39 9.56c.58-.69 1.62-.95 2.5-.44l19.95 11.52Z" class="cls-5"/></svg>