<svg xmlns="http://www.w3.org/2000/svg" id="Isolation_Mode" viewBox="0 0 17.49 14.4"><path d="M17.42 1.73c-.56.25-1.17.4-1.77.5.29-.05.7-.56.87-.77.26-.32.47-.68.59-1.07.01-.03.03-.07 0-.09-.04-.01-.06 0-.09 0-.67.36-1.36.62-2.1.8-.06.01-.11 0-.15-.04-.06-.07-.12-.13-.18-.19-.31-.26-.64-.47-1.02-.62-.49-.19-1.03-.28-1.56-.25-.52.03-1.02.18-1.48.42a3.697 3.697 0 0 0-1.9 2.4c-.12.5-.11 1-.04 1.51.01.08 0 .1-.07.08C5.64 3.99 3.25 2.96 1.31.75c-.08-.1-.13-.1-.2 0-.85 1.27-.44 3.31.62 4.32.14.13.29.27.44.39-.06.01-.76-.07-1.39-.39-.08-.05-.13-.02-.13.07 0 .14 0 .26.02.41.16 1.29 1.05 2.48 2.28 2.95.15.06.31.11.46.14-.28.06-.57.1-1.36.04-.1-.02-.14.03-.1.13.6 1.64 1.9 2.12 2.87 2.4.13.02.26.02.39.05 0 .01-.02.01-.02.02-.32.49-1.44.86-1.96 1.04-.95.33-1.97.48-2.97.38-.16-.02-.19-.02-.24 0-.04.03 0 .07.05.11.2.13.41.25.62.37.63.34 1.3.6 1.99.79 3.57.99 7.59.26 10.27-2.4 2.1-2.09 2.84-4.98 2.84-7.87 0-.11.13-.18.21-.24.55-.41.99-.9 1.4-1.45.09-.12.09-.23.09-.28v-.02s0-.03-.07 0"/></svg>